<svg width="1009" height="848" xmlns="http://www.w3.org/2000/svg" xmlns:xlink="http://www.w3.org/1999/xlink" xml:space="preserve" overflow="hidden"><defs><clipPath id="clip0"><rect x="1672" y="559" width="1009" height="848"/></clipPath></defs><g clip-path="url(#clip0)" transform="translate(-1672 -559)"><path d="M1992.68 1228.69C2067.83 932.029 2275.34 640.338 2456.16 577.178 2636.99 514.018 2722.65 703.307 2647.5 999.966 2628.19 1076.21 2599.2 1155.04 2562.46 1231.21Z" stroke="#000000" stroke-width="4.58333" stroke-linecap="butt" stroke-linejoin="miter" stroke-miterlimit="8" stroke-opacity="1" fill="#000000" fill-rule="evenodd" fill-opacity="1"/><path d="M1688.27 1238.14C1769.03 939.384 1977.06 647.4 2152.9 585.978 2328.75 524.557 2405.83 716.957 2325.06 1015.72 2305.07 1089.66 2276.38 1165.93 2240.74 1239.82Z" stroke="#FFFFFF" stroke-width="16.0417" stroke-linecap="butt" stroke-linejoin="miter" stroke-miterlimit="8" stroke-opacity="1" fill="#000000" fill-rule="evenodd" fill-opacity="1"/><text fill="#000000" fill-opacity="1" font-family="MiSans Normal,MiSans Normal_MSFontService,sans-serif" font-style="normal" font-variant="normal" font-weight="400" font-stretch="normal" font-size="83" text-anchor="start" direction="ltr" writing-mode="lr-tb" unicode-bidi="normal" text-decoration="none" transform="matrix(1 0 0 1 1950.05 1332)">M</text><text fill="#000000" fill-opacity="1" font-family="MiSans Normal,MiSans Normal_MSFontService,sans-serif" font-style="normal" font-variant="normal" font-weight="400" font-stretch="normal" font-size="83" text-anchor="start" direction="ltr" writing-mode="lr-tb" unicode-bidi="normal" text-decoration="none" transform="matrix(1 0 0 1 2051.46 1332)">E</text><text fill="#000000" fill-opacity="1" font-family="MiSans Normal,MiSans Normal_MSFontService,sans-serif" font-style="normal" font-variant="normal" font-weight="400" font-stretch="normal" font-size="83" text-anchor="start" direction="ltr" writing-mode="lr-tb" unicode-bidi="normal" text-decoration="none" transform="matrix(1 0 0 1 2129.37 1332)">M</text><text fill="#000000" fill-opacity="1" font-family="MiSans Normal,MiSans Normal_MSFontService,sans-serif" font-style="normal" font-variant="normal" font-weight="400" font-stretch="normal" font-size="83" text-anchor="start" direction="ltr" writing-mode="lr-tb" unicode-bidi="normal" text-decoration="none" transform="matrix(1 0 0 1 2230.78 1332)">B</text><text fill="#000000" fill-opacity="1" font-family="MiSans Normal,MiSans Normal_MSFontService,sans-serif" font-style="normal" font-variant="normal" font-weight="400" font-stretch="normal" font-size="83" text-anchor="start" direction="ltr" writing-mode="lr-tb" unicode-bidi="normal" text-decoration="none" transform="matrix(1 0 0 1 2314.42 1332)">E</text><text fill="#000000" fill-opacity="1" font-family="MiSans Normal,MiSans Normal_MSFontService,sans-serif" font-style="normal" font-variant="normal" font-weight="400" font-stretch="normal" font-size="83" text-anchor="start" direction="ltr" writing-mode="lr-tb" unicode-bidi="normal" text-decoration="none" transform="matrix(1 0 0 1 2392.34 1332)">R</text></g></svg>